<svg width="120" height="120" viewBox="0 0 120 120" fill="none" xmlns="http://www.w3.org/2000/svg">
<rect width="120" height="120" rx="60" fill="white"/>
<path d="M60.4267 105.432C47.2494 105.432 35.9766 102.192 27.8288 96.0607C19.533 89.8174 15.1482 80.9755 15.1482 70.4922C15.1482 60.0089 21.3849 46.4006 31.4274 34.0292C41.3778 21.7663 52.4894 14.1514 60.4267 14.1514C68.364 14.1514 79.4756 21.7696 89.426 34.0292C99.4653 46.4006 105.705 60.374 105.705 70.4922C105.705 80.6104 101.32 89.8141 93.0246 96.0607C84.8801 102.192 73.6073 105.432 60.4267 105.432Z" fill="#00B2CF"/>
<path d="M60.4265 15.3026C64.1764 15.3026 68.8244 17.171 73.8736 20.7038C78.8011 24.1543 83.87 29.0128 88.5311 34.7561C98.4125 46.9334 104.55 60.6272 104.55 70.4921C104.55 80.357 100.324 89.12 92.3304 95.1396C88.4357 98.0704 83.7418 100.343 78.3735 101.899C72.9131 103.481 66.8737 104.281 60.4265 104.281C53.9793 104.281 47.94 103.478 42.4796 101.899C37.1113 100.347 32.4173 98.0704 28.5227 95.1396C20.5262 89.12 16.3026 80.5972 16.3026 70.4921C16.3026 60.3871 22.4406 46.9334 32.3219 34.7561C36.983 29.0128 42.052 24.1543 46.9795 20.7038C52.0287 17.171 56.6766 15.3026 60.4265 15.3026ZM60.4265 13C42.6177 13 14 47.9828 14 70.4921C14 93.0015 33.562 106.583 60.4265 106.583C87.291 106.583 106.853 93.0015 106.853 70.4921C106.853 47.9828 78.2353 13 60.4265 13Z" fill="#00B2CF"/>
<path d="M98.0048 69.7124C94.4622 41.4828 62.1669 29.9107 60.4991 29.3317H60.4695C60.4695 29.3317 60.4761 29.3284 60.4794 29.3252C60.4531 29.3153 60.4399 29.312 60.4333 29.3087C60.4333 29.3087 60.4268 29.312 60.4268 29.3153C60.4268 29.3153 60.4202 29.312 60.4202 29.3087C60.4136 29.3087 60.4005 29.3153 60.3741 29.3252C60.3807 29.3252 60.3774 29.3251 60.384 29.3317H60.3544C58.69 29.9107 26.3914 41.4795 22.8487 69.7124C20.3323 89.7744 37.049 102.942 60.4268 102.942C83.8045 102.942 100.521 89.7777 98.0048 69.7124Z" fill="white"/>
<path d="M65.1204 92.7251C65.1204 94.7744 63.0184 97.5573 60.4264 97.5573C57.8343 97.5573 55.7324 94.7711 55.7324 92.7251C55.7324 90.6791 57.8343 92.7251 60.4264 92.7251C63.0184 92.7251 65.1204 90.6758 65.1204 92.7251Z" fill="#00B2CF"/>
<path d="M51.0158 87.9982C51.0125 89.5969 46.9469 91.4916 42.6608 91.1922C38.3747 90.8929 35.1215 88.4719 35.4899 86.916C35.8057 85.5838 38.776 85.1167 43.0621 85.4161C47.3482 85.7154 51.0158 86.8371 51.0158 87.9982Z" fill="#DCF2FD"/>
<path d="M69.8345 87.9982C69.8378 89.5969 73.9034 91.4916 78.1895 91.1922C82.4756 90.8929 85.7288 88.4719 85.3604 86.916C85.0446 85.5838 82.0743 85.1167 77.7882 85.4161C73.5021 85.7154 69.8345 86.8371 69.8345 87.9982Z" fill="#DCF2FD"/>
<path d="M34.292 40.6275C33.8611 40.6275 33.4269 40.486 33.065 40.1966C32.2131 39.519 32.0717 38.2756 32.7493 37.4236C33.4499 36.5421 34.1736 35.6704 34.8972 34.8316C35.611 34.0059 36.8577 33.9138 37.6801 34.6276C38.5057 35.3414 38.5978 36.5881 37.884 37.4105C37.1932 38.2098 36.5058 39.042 35.8347 39.8808C35.4466 40.3709 34.8709 40.6242 34.2887 40.6242L34.292 40.6275ZM41.3741 32.8513C40.8543 32.8513 40.3313 32.6474 39.9465 32.2395C39.1932 31.4501 39.2261 30.2001 40.0155 29.4501C43.5418 26.0884 47.0516 23.4338 50.4462 21.5556C51.4001 21.0293 52.6008 21.3746 53.1271 22.3286C53.6534 23.2825 53.308 24.4831 52.3541 25.0094C49.2522 26.7232 46.0187 29.1771 42.7359 32.3053C42.3543 32.6704 41.8642 32.8513 41.3741 32.8513Z" fill="white"/>
<path d="M44.145 58.9097C49.6679 58.9097 54.145 64.9538 54.145 72.4097C54.145 79.8655 49.6679 85.9097 44.145 85.9097C38.6222 85.9097 34.145 79.8655 34.145 72.4097C34.145 64.9538 38.6222 58.9097 44.145 58.9097Z" fill="#00B2CF"/>
<path d="M77.145 58.9097C82.6679 58.9097 87.145 64.9538 87.145 72.4097C87.145 79.8655 82.6679 85.9097 77.145 85.9097C71.6222 85.9097 67.145 79.8655 67.145 72.4097C67.145 64.9538 71.6222 58.9097 77.145 58.9097Z" fill="#00B2CF"/>
</svg>
