<svg width="328" height="120" viewBox="0 0 328 120" fill="none" xmlns="http://www.w3.org/2000/svg">
<g clip-path="url(#clip0_4_178)">
<g clip-path="url(#clip1_4_178)">
<path d="M12.671 27.4687L67.1747 17.8854V26.3132L67.4515 25.4227L99.5808 19.783C101.807 18.8395 104.213 18.1398 106.812 17.684C108.707 17.3554 110.56 17.1858 112.317 17.1858C116.907 17.1858 121.061 18.3413 124.468 20.5251C128.643 15.9349 134.415 12.8606 141.263 11.6521C143.169 11.3128 145.032 11.1432 146.8 11.1432C152.136 11.1432 156.832 12.691 160.517 15.5426L175.309 12.9454L178.195 12.4259C180.463 12.0231 182.593 11.8323 184.542 11.8323C187.907 11.8323 196.735 12.6168 201.858 20.2282C205.926 16.1575 211.357 13.4012 217.778 12.2775C219.685 11.9383 221.548 11.7687 223.316 11.7687C227.885 11.7687 232.027 12.9242 235.456 15.0868C239.546 10.4754 245.233 7.45409 252.229 6.23498C254.125 5.90635 255.978 5.73673 257.735 5.73673C262.325 5.73673 266.468 6.89224 269.875 9.06543C274.05 4.47522 279.822 1.39034 286.68 0.192432C288.586 -0.146799 290.45 -0.316414 292.218 -0.316414C305.551 -0.316414 314.518 9.46827 314.518 24.0234V57.1938C314.518 72.5652 305.295 83.728 290.439 86.3358C288.533 86.675 286.669 86.8446 284.902 86.8446C280.344 86.8446 276.201 85.6997 272.761 83.5265C268.672 88.138 262.985 91.1592 255.989 92.3889C254.093 92.7176 252.24 92.8872 250.483 92.8872C245.893 92.8872 241.74 91.7317 238.332 89.5479C234.157 94.1381 228.385 97.223 221.527 98.4209C219.621 98.7601 217.757 98.9297 215.989 98.9297C211.197 98.9297 206.884 97.6682 203.359 95.3042C199.249 99.5446 193.636 102.354 186.799 103.552L156.374 108.895V93.5126C153.094 95.5904 149.271 97.0428 145 97.7954C143.094 98.1347 141.231 98.3043 139.463 98.3043C134.894 98.3043 130.752 97.1488 127.312 94.9862C123.222 99.5976 117.536 102.619 110.539 103.838C108.643 104.167 106.79 104.336 105.033 104.336C103.276 104.336 101.721 104.177 100.156 103.87V104.718L70.9552 109.838L12.671 120.089V27.4687Z" fill="#003665"/>
<path d="M292.25 5.06887C290.791 5.06887 289.247 5.20669 287.649 5.49291C279.79 6.87104 273.975 11.0266 270.791 17.1858C267.937 13.274 263.486 11.122 257.756 11.122C256.319 11.122 254.774 11.2598 253.188 11.5461C245.275 12.9348 239.546 17.0374 236.468 23.2389C233.55 19.3484 229.035 17.154 223.337 17.154C221.879 17.154 220.334 17.2918 218.737 17.578C209.248 19.2424 202.742 24.9563 200.26 33.3522C199.579 19.3908 190.228 17.2176 184.552 17.2176C182.912 17.2176 181.113 17.3872 179.174 17.7264L176.267 18.2565L161.827 20.7901V25.8043C159.196 19.9208 153.935 16.5285 146.811 16.5285C145.352 16.5285 143.808 16.6663 142.21 16.9525C134.351 18.3307 128.536 22.4862 125.363 28.6454C122.509 24.7336 118.057 22.5711 112.317 22.5711C110.88 22.5711 109.346 22.7089 107.76 22.9951C102.382 23.9386 98.0047 26.133 94.7885 29.3981V26.1012L71.6687 30.1613L61.7647 62.1656V24.3096L18.0916 31.9847V113.654L70.05 104.516L73.9796 90.5656V103.817L94.7779 100.17V95.6858C97.4615 97.7848 100.933 98.9191 105.065 98.9191C106.503 98.9191 108.047 98.7813 109.634 98.4951C117.546 97.1064 123.276 93.0038 126.353 86.8022C129.271 90.6928 133.787 92.8872 139.484 92.8872C140.943 92.8872 142.487 92.7494 144.085 92.4631C152.743 90.9472 158.919 86.0602 161.816 78.8409V102.449L185.884 98.2301C193.775 96.8413 199.515 92.9826 202.678 87.1945C205.596 91.244 210.185 93.5232 216.011 93.5232C217.47 93.5232 219.014 93.3854 220.611 93.0992C228.47 91.7211 234.285 87.5655 237.459 81.4064C240.313 85.3181 244.764 87.4807 250.504 87.4807C251.942 87.4807 253.475 87.3429 255.073 87.0567C262.996 85.6679 268.715 81.5548 271.792 75.3532C274.71 79.2438 279.226 81.4276 284.923 81.4276C286.382 81.4276 287.926 81.2897 289.523 81.0035C301.802 78.8515 309.129 69.9467 309.129 57.1726V24.0022C309.129 12.3199 302.665 5.05827 292.25 5.05827V5.06887Z" fill="white"/>
<path d="M56.3335 30.7444L46.3763 32.4829V58.9853L56.3335 57.2362V30.7444Z" fill="#003665"/>
<path d="M108.686 28.3062C98.9098 30.0235 93.8301 36.6809 93.8301 46.773V79.9434C93.8301 90.0355 98.8992 94.9226 108.686 93.2052C118.462 91.4879 123.531 84.8305 123.531 74.7384V52.3597L109.133 54.8828V60.0878L114.117 59.2186V80.9187C114.117 85.4241 112.126 87.3959 108.952 87.9577C105.779 88.5196 103.787 87.2369 103.787 82.7315V40.5927C103.787 36.0873 105.779 34.0201 108.952 33.4688C112.126 32.9176 114.117 34.2745 114.117 38.7799V47.1017L123.531 45.4479V41.5574C123.531 31.4653 118.462 26.5782 108.686 28.2956V28.3062Z" fill="#003665"/>
<path d="M143.147 22.2636C133.371 23.981 128.025 30.6914 128.025 40.7835V73.9539C128.025 84.046 133.371 88.88 143.147 87.1627C152.924 85.4453 158.27 78.7349 158.27 68.6428V35.4724C158.27 25.3803 152.924 20.5463 143.147 22.2636ZM148.302 74.8338C148.302 79.3392 146.31 81.4064 143.137 81.9576C139.963 82.5089 137.972 81.1519 137.972 76.6465V34.5925C137.972 30.0871 139.963 28.0199 143.137 27.4687C146.31 26.9174 148.302 28.2744 148.302 32.7798V74.8338Z" fill="#003665"/>
<path d="M56.3335 98.0181V69.3213V64.1162L33.4693 68.1446V34.7727L23.5121 36.5113V107.23L33.4693 105.481V73.3496L46.3764 71.0704V103.202L56.3335 101.453L65.7476 99.799L79.2404 51.8721H79.3895V97.4032L89.3467 95.654V32.5253L75.8539 34.8894L56.3335 98.0181Z" fill="#003665"/>
<path d="M219.674 22.8891C209.898 24.6064 204.552 31.3168 204.552 41.409V74.5793C204.552 84.6715 209.898 89.5055 219.674 87.7881C229.45 86.0708 234.796 79.3604 234.796 69.2683V36.0979C234.796 26.0058 229.45 21.1717 219.674 22.8891ZM224.828 75.4592C224.828 79.9646 222.837 82.0318 219.663 82.5831C216.49 83.1343 214.498 81.7774 214.498 77.272V35.218C214.498 30.7126 216.49 28.6454 219.663 28.0942C222.837 27.5429 224.828 28.8998 224.828 33.4052V75.4592Z" fill="#00B2CF"/>
<path d="M254.125 16.8571C244.349 18.5745 239.269 25.2319 239.269 35.324V68.4944C239.269 78.5865 244.338 83.4736 254.125 81.7562C263.901 80.0389 268.97 73.3814 268.97 63.2893V40.9107L254.572 43.4337V48.6388L259.556 47.7695V69.4697C259.556 73.9751 257.565 75.9469 254.391 76.5087C251.218 77.06 249.226 75.7879 249.226 71.2825V29.1331C249.226 24.6276 251.218 22.5605 254.391 22.0092C257.565 21.458 259.556 22.8149 259.556 27.3203V35.642L268.97 33.9883V30.0977C268.97 20.0056 263.901 15.1186 254.125 16.8359V16.8571Z" fill="#00B2CF"/>
<path d="M288.586 10.804C278.81 12.5214 273.464 19.2318 273.464 29.3239V62.4943C273.464 72.5864 278.81 77.4204 288.586 75.7031C298.363 73.9857 303.709 67.2753 303.709 57.1832V24.0128C303.709 13.9207 298.363 9.08664 288.586 10.804ZM293.741 63.3741C293.741 67.8796 291.749 69.9467 288.576 70.498C285.402 71.0492 283.411 69.6923 283.411 65.1869V23.1329C283.411 18.6275 285.402 16.5603 288.576 16.0091C291.749 15.4578 293.741 16.8147 293.741 21.3201V63.3741Z" fill="#00B2CF"/>
<path d="M188.812 54.904L177.194 56.9393V28.7726L179.867 28.285C183.402 27.6701 184.936 29.3769 184.936 33.8823V48.8932C184.936 50.1759 184.787 51.2678 184.51 52.1795L184.883 52.1159C190.527 51.13 194.893 45.7023 194.893 40.2958V34.953C194.893 25.2213 190.452 21.2141 180.133 23.0269L177.194 23.5569L167.236 25.3061V96.0145L184.936 92.9084C194.893 91.1592 200.058 85.0213 200.058 75.2896V66.0774C200.058 59.4094 198.12 53.2608 188.812 54.8934V54.904ZM190.101 80.5901C190.101 85.2757 188.29 87.1309 184.936 87.7139L177.194 89.0708V62.1444L183.668 61.0101C188.194 60.215 190.101 61.6886 190.101 67.5403V80.5901Z" fill="#00B2CF"/>
</g>
</g>
<defs>
<clipPath id="clip0_4_178">
<rect width="328" height="120" fill="white"/>
</clipPath>
<clipPath id="clip1_4_178">
<rect width="301.868" height="120.416" fill="white" transform="translate(12.671 -0.327011)"/>
</clipPath>
</defs>
</svg>
